<?xml version="1.0" encoding="utf-8"?>
<!-- Generator: Adobe Illustrator 18.0.0, SVG Export Plug-In . SVG Version: 6.00 Build 0)  -->
<!DOCTYPE svg PUBLIC "-//W3C//DTD SVG 1.1//EN" "http://www.w3.org/Graphics/SVG/1.1/DTD/svg11.dtd">
<svg version="1.1" id="Layer_1" xmlns="http://www.w3.org/2000/svg" xmlns:xlink="http://www.w3.org/1999/xlink" x="0px" y="0px"
	 viewBox="0 0 145.6 151.7" enable-background="new 0 0 145.6 151.7" xml:space="preserve">
<circle fill="#FFFFFF" cx="73.5" cy="77" r="62.5"/>
<g>
	<g>
		<path fill="#C4932C" d="M94.7,55.2c-2.4-1.5-5.2-2.4-8.2-2.4c-5.2,0-9.9,2.8-13,7.1c-3.1-4.3-7.8-7.1-13-7.1c-3,0-5.7,0.9-8.2,2.4
			c-5.2,3.3-8.8,9.8-8.8,17.2c0,2.1,0.3,4.2,0.8,6.1c2.9,15.1,29.1,34.2,29.1,34.2s26.2-19.1,29.1-34.2c0.5-1.9,0.8-3.9,0.8-6.1
			C103.5,65,100,58.5,94.7,55.2z"/>
	</g>
</g>
</svg>
