<?xml version="1.0" encoding="utf-8"?>
<!-- Generator: Adobe Illustrator 18.0.0, SVG Export Plug-In . SVG Version: 6.00 Build 0)  -->
<!DOCTYPE svg PUBLIC "-//W3C//DTD SVG 1.1//EN" "http://www.w3.org/Graphics/SVG/1.1/DTD/svg11.dtd">
<svg version="1.1" id="Layer_1" xmlns="http://www.w3.org/2000/svg" xmlns:xlink="http://www.w3.org/1999/xlink" x="0px" y="0px"
	 viewBox="0 0 145.6 151.7" enable-background="new 0 0 145.6 151.7" xml:space="preserve">
<circle fill="#FFFFFF" cx="72.8" cy="80.2" r="62.5"/>
<g>
	<path fill="#C4932C" d="M98.2,56.2c0,3.3-2.7,6-6,6c-3.3,0-6-2.7-6-6c0-3.4,2.7-6,6.1-6C95.5,50.2,98.2,52.9,98.2,56.2z"/>
	<g>
		<path fill="#C4932C" d="M61.9,110.2c-1.7-1.1-3.4-2.2-5.1-3.3c0.6-0.6,1.2-1.2,1.8-1.9c2.1-2.2,4.3-4.4,6.4-6.7
			c0.1-0.1,0.2-0.2,0.4-0.2c2.7,0,5.3,0,8,0c0.1,0,0.1,0,0.2,0C69.6,102.2,65.8,106.2,61.9,110.2z"/>
		<g>
			<path fill="#C4932C" d="M104.2,74.2c0,2,0,4,0,6c-0.1,0-0.2,0-0.3,0c-3.2,0-6.3,0-9.5,0c-4.3,0-7.9-2.8-9-7
				c-0.2-0.8-0.3-1.6-0.5-2.4c0-0.1,0-0.1,0-0.2c-0.1,0.1-0.2,0.1-0.3,0.2c-2.9,2.3-5.8,4.7-8.7,7c-0.2,0.2-0.2,0.3-0.1,0.6
				c1.3,2.8,2.6,5.5,3.8,8.3c1.5,3.2,0,6.9-3.2,8.2c-0.7,0.3-1.4,0.4-2.1,0.4c-6.9,0-13.8,0-20.8,0c-0.1,0-0.2,0-0.3,0c0-2,0-4,0-6
				c6.8,0,13.5,0,20.4,0c-0.1-0.2-0.2-0.3-0.3-0.4c-2.2-3.1-4.5-6.2-6.7-9.3c-1.8-2.5-1.4-6,1-8c2.2-1.9,4.4-3.7,6.6-5.6
				c0.9-0.8,1.9-1.6,2.8-2.4c0.1-0.1,0.1-0.1,0.2-0.2c-0.6-0.4-1.1-0.8-1.7-1.3c-1.1-0.8-2.3-1.7-3.4-2.5c-0.6-0.4-1.2-0.7-1.9-0.8
				c-0.3,0-0.6,0-0.9,0.1c-4.1,1.1-8.3,2.2-12.4,3.3c0,0-0.1,0-0.1,0c-0.5-1.9-1-3.8-1.6-5.8c0.7-0.2,1.4-0.4,2-0.5
				c3.5-1,7.1-1.9,10.6-2.8c2-0.5,4-0.2,5.8,0.6c1.1,0.5,2.1,1.3,3.1,2c3.4,2.5,6.8,5.1,10.2,7.6c2,1.5,3.3,3.5,3.6,6
				c0.1,0.9,0.3,1.8,0.5,2.7c0.3,1.4,1.6,2.4,3.1,2.4c3.2,0,6.3,0,9.5,0C103.9,74.2,104.1,74.2,104.2,74.2z"/>
			<path fill="#C4932C" d="M44.2,68.2c0-1,0-2,0-3c8.1,0,16.2,0,24.3,0c-0.7,0.5-1.3,0.9-1.9,1.4c-0.7,0.5-1.4,1-2.2,1.5
				c-0.1,0.1-0.3,0.1-0.4,0.1c-4.9,0-9.8,0-14.8,0c-1.6,0-3.1,0-4.7,0C44.4,68.2,44.3,68.2,44.2,68.2z"/>
			<path fill="#C4932C" d="M44.2,74.2c0-1,0-2,0-3c5.9,0,11.8,0,17.7,0c-0.3,1-0.9,1.9-0.9,3C55.4,74.2,49.8,74.2,44.2,74.2z"/>
			<path fill="#C4932C" d="M44.2,80.2c0-1,0-2,0-3c0.1,0,0.2,0,0.3,0c5.3,0,10.6,0,15.9,0c0.3,0,0.4,0.1,0.4,0.3
				c0.1,0.3,0.1,0.7,0.2,1c0.1,0.5,0.3,1.1,0.5,1.6C55.7,80.2,50,80.2,44.2,80.2z"/>
		</g>
	</g>
</g>
</svg>
