<?xml version="1.0" encoding="utf-8"?>
<!-- Generator: Adobe Illustrator 18.0.0, SVG Export Plug-In . SVG Version: 6.00 Build 0)  -->
<!DOCTYPE svg PUBLIC "-//W3C//DTD SVG 1.1//EN" "http://www.w3.org/Graphics/SVG/1.1/DTD/svg11.dtd">
<svg version="1.1" id="Layer_1" xmlns="http://www.w3.org/2000/svg" xmlns:xlink="http://www.w3.org/1999/xlink" x="0px" y="0px"
	 viewBox="0 0 145.6 151.7" enable-background="new 0 0 145.6 151.7" xml:space="preserve">
<circle fill="#FFFFFF" cx="72.8" cy="75.8" r="62.5"/>
<g>
	<path fill="#C4932C" d="M95.7,69.2l-6.1,16.5l5.2-3.5c-1.8,7.2-7.8,13-15.5,15.1l-1.8-24.6l3.6-0.4c0.6-0.1,1-0.6,1-1.2v-1
		c0-0.6-0.5-1.1-1-1.2l-3.9-0.4l-0.1-1.3c3.9-1.7,6.7-5.6,6.7-10.2c0-6.1-4.9-11.1-10.9-11.1s-10.9,5-10.9,11.1
		c0,4.6,2.7,8.5,6.7,10.2l-0.1,1.3l-3.9,0.4c-0.6,0.1-1,0.6-1,1.2v1c0,0.6,0.5,1.1,1,1.2l3.6,0.4l-1.8,24.6
		c-7.7-2.1-13.7-7.9-15.5-15.1l5.2,3.5l-6.1-16.5l-7.1,14.4l4.8-2.4c1.7,13.9,12.3,24.6,25.2,24.6s23.6-10.7,25.2-24.6l4.8,2.4
		L95.7,69.2z M67,56.9c0-3.3,2.6-5.9,5.8-5.9s5.8,2.7,5.8,5.9c0,3.3-2.6,5.9-5.8,5.9S67,60.2,67,56.9z"/>
</g>
</svg>
