<?xml version="1.0" encoding="utf-8"?>
<!-- Generator: Adobe Illustrator 18.0.0, SVG Export Plug-In . SVG Version: 6.00 Build 0)  -->
<!DOCTYPE svg PUBLIC "-//W3C//DTD SVG 1.1//EN" "http://www.w3.org/Graphics/SVG/1.1/DTD/svg11.dtd">
<svg version="1.1" id="Layer_1" xmlns="http://www.w3.org/2000/svg" xmlns:xlink="http://www.w3.org/1999/xlink" x="0px" y="0px"
	 viewBox="0 0 145.6 151.7" enable-background="new 0 0 145.6 151.7" xml:space="preserve">
<circle fill="#FFFFFF" cx="72.4" cy="78" r="62.5"/>
<path fill="#C4932C" d="M95.5,81.5L95.5,81.5c1.1,0.8,2.6,0.5,3.4-0.6l7.8-10.7c0.8-1.1,0.5-2.6-0.6-3.3l0,0l-2.4-1.6L93.2,79.9
	L95.5,81.5z M47.1,103.5c1.5,3.1,4.8,5.1,8.1,5.5l20.6-28.2l-8.2-5.5L47.1,103.5z M90.9,75.8c0.1,0.2,0.3,0.4,0.4,0.6
	c0.1,0.2,0.2,0.3,0.2,0.4c0.1,0.3,0.3,0.6,0.4,0.9c3-4.2,6.1-8.3,9.1-12.5c0,0-7.1,0.8-10.8-7.3c-0.8-0.5-1.6-1-2.3-1.6
	c-10.7-7.2-20.8-8.6-29.7-6.3c-0.5,0.1-1.4,0.4-2.3,0.7c-1.5,0.5-1.3,2.8,0.5,2.5c0.8-0.1,1.7-0.3,2.1-0.3c1.7-0.1,3.3-0.2,5,0.1
	c7.2,1.3,12.8,7.6,8.1,14.1c-1.3,1.7-3.8,5.1-3.8,5.2c0,0,10.7,7.1,10.6,7.2c-0.3,0.4,0.7-0.9,1.1-1.3c1.6-1.8,4.9-4.8,9-4
	c0.6,0.1,1.2,0.4,1.6,0.8c0.2,0.2,0.4,0.4,0.6,0.6C90.8,75.6,90.9,75.7,90.9,75.8z"/>
</svg>
