<?xml version="1.0" encoding="utf-8"?>
<!-- Generator: Adobe Illustrator 18.0.0, SVG Export Plug-In . SVG Version: 6.00 Build 0)  -->
<!DOCTYPE svg PUBLIC "-//W3C//DTD SVG 1.1//EN" "http://www.w3.org/Graphics/SVG/1.1/DTD/svg11.dtd">
<svg version="1.1" id="Layer_1" xmlns="http://www.w3.org/2000/svg" xmlns:xlink="http://www.w3.org/1999/xlink" x="0px" y="0px"
	 viewBox="0 0 145.6 151.7" enable-background="new 0 0 145.6 151.7" xml:space="preserve">
<circle fill="#FFFFFF" cx="72.8" cy="79.3" r="62.5"/>
<g>
	<g>
		<path fill="#C4932C" d="M102.8,92.9v-2.5H78.2c0-0.1,0-0.1,0-0.3c0-0.2-0.1-0.8-0.1-1.1c0-0.4-0.1-0.8,0-1.5
			c0-0.6,0.1-1.3,0.2-2.2c0.2-1.5,0.6-3.3,1-5.3c0.2-0.2,0.5-0.5,0.8-0.7c0.9-0.5,2-1,3.2-1.3c1.2-0.3,2.4-0.7,3.6-1
			c0.2,0,0.3,0.1,0.5,0.1c0.3,0.1,0.6,0.1,1,0.1c0.7,0.1,1.5,0,2.3-0.1c0.8-0.2,1.5-0.5,2.2-0.9c0.3-0.2,0.6-0.5,0.9-0.7
			c0.3-0.3,0.5-0.6,0.7-0.9c0.2-0.3,0.3-0.7,0.4-1c0.1-0.3,0.1-0.7,0.1-1c0-0.3-0.1-0.6-0.2-0.9c-0.1-0.2-0.3-0.5-0.4-0.6
			c-0.1-0.2-0.3-0.3-0.3-0.4c-0.1-0.1-0.2-0.1-0.2-0.1s-0.1,0-0.2,0.1c-0.1,0-0.4,0.1-0.6,0.2c-0.2,0.1-0.5,0.1-0.7,0.2
			c-0.2,0-0.5,0.1-0.8,0.2c-0.3,0-0.6,0.1-0.8,0.2c-0.3,0.1-0.5,0.1-0.8,0.2c-0.3,0.1-0.5,0.2-0.7,0.3c-0.2,0.1-0.4,0.2-0.7,0.4
			c-0.4,0.3-0.8,0.6-1.2,1.1c-0.3,0.4-0.6,0.9-0.8,1.3c-0.1,0.2-0.2,0.5-0.3,0.7c-0.1,0.2-0.1,0.4-0.2,0.6c0,0.1-0.1,0.2-0.1,0.3
			c2.1-0.7,5.4-2,6-2.9c0,0-1,1.8-5.7,3.4c0,0,0.1,0,0.1,0c-1,0.3-2.1,0.5-3.2,0.8c-1.2,0.3-2.4,0.7-3.5,1.3c0,0,0,0-0.1,0
			c0.4-2.2,0.6-4.7,0.2-7.1l-0.2-1l-0.1-0.6l-0.2-0.4c-0.2-0.5-0.4-1.1-0.6-1.6c0.1-0.4,0.3-0.9,0.4-1.3c0.5-1.2,1.1-2.3,1.6-3.2
			c1-1.3,1.9-2.7,1.8-3.4c0,0,0.4,1.9-2.4,5.2c0.1,0,0.2,0,0.4,0c0.2,0,0.5-0.1,0.8-0.1c0.3-0.1,0.6-0.2,0.9-0.3
			c0.6-0.2,1.3-0.6,1.8-1.1c0.5-0.5,1-1,1.2-1.7c0.1-0.3,0.2-0.7,0.3-1c0-0.3,0-0.7,0-1c-0.1-0.3-0.2-0.7-0.3-1
			c-0.2-0.3-0.4-0.6-0.6-0.8c-0.2-0.3-0.5-0.5-0.8-0.6c-0.2-0.2-0.5-0.3-0.8-0.4c-0.2-0.1-0.4-0.1-0.6-0.2c-0.1,0-0.2,0-0.2,0
			s0,0-0.1,0.1c-0.1,0.1-0.2,0.2-0.4,0.4c-0.1,0.1-0.3,0.3-0.5,0.5c-0.2,0.1-0.4,0.3-0.6,0.5c-0.2,0.2-0.4,0.3-0.6,0.5
			c-0.2,0.2-0.4,0.3-0.5,0.5c-0.2,0.2-0.3,0.4-0.4,0.5c-0.1,0.2-0.2,0.4-0.3,0.6c-0.2,0.4-0.3,0.9-0.3,1.4c0,0.5,0.1,1,0.2,1.5
			c0.1,0.2,0.2,0.5,0.2,0.7c0.1,0.2,0.2,0.4,0.3,0.6c0,0.1,0.1,0.2,0.1,0.2c-0.3,0.5-0.7,1-1,1.5c-0.1,0.2-0.2,0.3-0.2,0.5
			c-0.4-0.9-0.8-1.8-1.3-2.6c-1-1.7-2.1-3.2-3.1-4.6c0.1-0.3,0.2-0.6,0.4-0.9c0.2-0.4,0.5-0.8,0.8-1.2c0.5-0.7,1.1-1.4,1.5-1.9
			c1.2-1,2.7-2.2,2.8-2.8c0,0-0.1,1.6-3.1,3.7c0.1,0,0.2,0,0.3,0c0.2,0,0.4,0,0.7,0c0.3,0,0.5,0,0.8-0.1c0.6-0.1,1.1-0.3,1.7-0.6
			c0.5-0.3,1-0.7,1.3-1.1c0.2-0.2,0.3-0.5,0.4-0.7c0.1-0.3,0.2-0.5,0.2-0.8c0-0.3,0-0.6,0-0.8c-0.1-0.3-0.1-0.5-0.3-0.7
			c-0.1-0.2-0.3-0.4-0.4-0.6c-0.1-0.2-0.3-0.3-0.5-0.4c-0.1-0.1-0.3-0.2-0.4-0.2c-0.1,0-0.2-0.1-0.2-0.1s-0.1,0-0.1,0.1
			c-0.1,0.1-0.2,0.1-0.4,0.2c-0.1,0.1-0.3,0.2-0.5,0.3c-0.2,0.1-0.3,0.2-0.6,0.3c-0.2,0.1-0.4,0.2-0.6,0.3c-0.2,0.1-0.4,0.2-0.5,0.3
			c-0.2,0.1-0.3,0.2-0.5,0.4c-0.2,0.1-0.3,0.3-0.4,0.4c-0.2,0.3-0.4,0.6-0.5,1c-0.1,0.4-0.2,0.8-0.2,1.2c0,0.2,0,0.4,0,0.6
			c0,0.2,0,0.4,0.1,0.5c0,0,0,0.1,0,0.1c-0.4,0.4-0.8,0.8-1.3,1.3c-0.4,0.4-0.8,0.8-1,1.2c-0.1,0.1-0.1,0.3-0.2,0.4
			c0,0,0-0.1-0.1-0.1c-1.7-2.2-3-3.9-3.6-4.6c0,0,0,0,0-0.1c0-0.1,0.1-0.2,0.1-0.4c0-0.1,0.1-0.3,0.1-0.4c0.1-0.3,0.1-0.6,0.1-0.9
			c0-0.3-0.1-0.6-0.2-0.8c-0.1-0.1-0.1-0.2-0.2-0.3c-0.1-0.1-0.2-0.2-0.3-0.3c-0.1-0.1-0.2-0.2-0.3-0.3c-0.1-0.1-0.2-0.2-0.4-0.3
			c-0.1-0.1-0.2-0.2-0.3-0.3c-0.1-0.1-0.2-0.2-0.3-0.3c-0.1-0.1-0.2-0.2-0.2-0.2c-0.1-0.1-0.1-0.1-0.1-0.1s0,0-0.1,0
			c-0.1,0-0.2,0.1-0.3,0.1c-0.1,0.1-0.3,0.1-0.4,0.2c-0.1,0.1-0.3,0.2-0.4,0.4c-0.1,0.1-0.2,0.3-0.3,0.5c-0.1,0.2-0.1,0.4-0.2,0.6
			c0,0.2,0,0.4,0,0.6c0,0.2,0.1,0.4,0.2,0.6c0.2,0.4,0.4,0.7,0.7,1c0.3,0.3,0.7,0.5,1.1,0.6c0.2,0.1,0.4,0.1,0.6,0.2
			c0.2,0,0.4,0.1,0.5,0.1c0.1,0,0.2,0,0.2,0c-1.8-1.9-1.5-3-1.5-3c0,0.5,1,1.8,1.8,2.7c0.4,0.8,1.2,2.7,2.3,5.2
			c0.1,0.2,0.2,0.4,0.3,0.6c-1.4-0.6-3.2-1-4.9-1.4c-1-0.2-1.9-0.5-2.7-0.9c0-0.1,0-0.2,0-0.3c0-0.2-0.1-0.4-0.1-0.6
			c-0.1-0.4-0.3-0.8-0.5-1.1c-0.2-0.4-0.5-0.7-0.8-0.9c-0.2-0.1-0.3-0.2-0.5-0.4c-0.2-0.1-0.3-0.2-0.5-0.3c-0.2-0.1-0.4-0.2-0.6-0.2
			c-0.2-0.1-0.4-0.1-0.6-0.2C60.4,54,60.2,54,60,53.9c-0.2-0.1-0.4-0.1-0.6-0.2c-0.2-0.1-0.3-0.1-0.4-0.2c-0.1,0-0.2-0.1-0.2-0.1
			s-0.1,0-0.1,0.1c-0.1,0.1-0.2,0.2-0.3,0.3c-0.1,0.1-0.3,0.3-0.4,0.5c-0.1,0.2-0.2,0.4-0.3,0.7c-0.1,0.2-0.1,0.5-0.1,0.8
			c0,0.3,0.1,0.5,0.2,0.8c0.1,0.2,0.2,0.5,0.4,0.8c0.2,0.2,0.4,0.5,0.6,0.6c0.5,0.4,1,0.7,1.6,0.9c0.6,0.2,1.2,0.3,1.8,0.3
			c0.3,0,0.6,0,0.8,0c0.2,0,0.5-0.1,0.7-0.1c0.1,0,0.2,0,0.3-0.1c-3.5-1.6-4-3.1-4-3.1c0.3,0.7,2.8,2,4.3,2.8c0,0,0,0,0-0.1
			c0.8,0.4,1.6,0.7,2.4,0.9c2.1,0.6,4.2,1.3,5.4,2.1c0.1,0,0.1,0.1,0.2,0.1c0.5,1.2,1,2.5,1.4,3.9c0.3,1.1,0.5,2.1,0.7,3.2
			c0,0.6,0.1,1.2,0.1,1.8l0,0.4c0,0,0,0.2,0,0.3l0,0.8c0,0.3-0.1,0.6-0.1,1c-0.8-0.6-1.8-1.2-2.8-1.7c-1.2-0.6-2.3-1.3-3.2-1.9
			c-0.1-0.1-0.1-0.3-0.2-0.4c-0.1-0.2-0.2-0.4-0.3-0.5c-0.2-0.4-0.5-0.7-0.8-1c-0.3-0.3-0.6-0.6-1-0.8c-0.2-0.1-0.4-0.2-0.6-0.3
			c-0.2-0.1-0.4-0.1-0.6-0.2c-0.2-0.1-0.4-0.1-0.6-0.1c-0.2,0-0.4-0.1-0.7-0.1c-0.2,0-0.5-0.1-0.7-0.1c-0.2,0-0.4-0.1-0.6-0.1
			c-0.2,0-0.3-0.1-0.5-0.1c-0.1,0-0.2,0-0.2,0s0,0-0.1,0.1c-0.1,0.1-0.2,0.2-0.3,0.3c-0.1,0.1-0.2,0.3-0.3,0.5
			c-0.1,0.2-0.1,0.4-0.1,0.7c0,0.2,0.1,0.5,0.1,0.8c0.1,0.2,0.2,0.5,0.4,0.8c0.2,0.2,0.4,0.5,0.6,0.7c0.2,0.2,0.5,0.4,0.8,0.5
			c0.6,0.3,1.2,0.5,1.8,0.6c0.6,0.1,1.2,0.1,1.8,0c0.3,0,0.5-0.1,0.8-0.2c0.2-0.1,0.5-0.1,0.6-0.2c0.1,0,0.2-0.1,0.3-0.1
			c-3.8-1.1-4.7-2.5-4.7-2.5c0.5,0.6,3.1,1.5,4.8,2c0.8,0.6,1.9,1.3,2.9,2c1.2,0.8,2.3,1.6,3,2.3c-0.5,2.1-1.4,4.1-2.4,6.1
			c-0.6-0.2-1.2-0.3-1.8-0.5c-0.8-0.2-1.6-0.4-2.3-0.6c-0.3-0.1-0.7-0.2-1-0.4c-0.1-0.1-0.1-0.3-0.2-0.5c-0.1-0.2-0.2-0.4-0.3-0.7
			c-0.3-0.5-0.6-0.9-0.9-1.3c-0.4-0.4-0.8-0.7-1.2-1c-0.2-0.1-0.4-0.2-0.7-0.3c-0.2-0.1-0.5-0.2-0.8-0.2c-0.3-0.1-0.5-0.1-0.8-0.2
			c-0.3,0-0.5-0.1-0.8-0.1c-0.3,0-0.6-0.1-0.8-0.1c-0.3,0-0.5-0.1-0.8-0.1c-0.2-0.1-0.4-0.1-0.6-0.1c-0.1,0-0.2,0-0.2,0
			s-0.1,0-0.1,0.1c-0.1,0.1-0.2,0.2-0.3,0.4c-0.1,0.2-0.3,0.4-0.3,0.7c-0.1,0.3-0.1,0.5-0.1,0.9c0,0.3,0.1,0.6,0.2,1
			c0.1,0.3,0.3,0.6,0.5,0.9c0.2,0.3,0.5,0.6,0.8,0.8c0.3,0.2,0.6,0.5,1,0.7c0.7,0.4,1.5,0.7,2.2,0.8c0.8,0.1,1.6,0.1,2.3,0
			c0.4,0,0.7-0.1,1-0.2c0.3-0.1,0.6-0.2,0.8-0.3c0.1,0,0.2-0.1,0.3-0.1c-4.8-1.3-5.9-3.1-5.9-3.1c0.7,0.8,4.1,1.9,6.2,2.6
			c0,0,0-0.1,0-0.1c0.2,0.1,0.5,0.2,0.7,0.3c0.7,0.3,1.5,0.6,2.3,0.8c0.6,0.2,1.2,0.4,1.8,0.6C71,81.8,70.4,82.9,70,84
			c-0.4,0.9-0.7,1.8-0.9,2.6c-0.2,0.8-0.4,1.6-0.5,2.2c-0.1,0.7-0.1,1-0.2,1.3c0,0.1,0,0.2,0,0.3H42.8v2.5h23.7c0,0-0.1,0.1-0.1,0.2
			c-0.3,0.4-0.7,0.8-1.1,1.2c-0.2,0.2-0.4,0.3-0.6,0.5c-0.2,0.2-0.4,0.3-0.7,0.5c-0.5,0.3-1,0.7-1.4,1.1l-0.4,0.6
			c-0.2,0.2-0.3,0.5-0.4,0.7c-0.2,0.5-0.2,1-0.4,1.4c-0.2,0.4-0.5,0.8-0.9,1.1l0,0v0c-0.3,0.1-0.5,0.3-0.8,0.3
			c-0.3,0.1-0.6,0.1-0.9,0.1c-0.7,0.1-1.3,0.2-1.9,0.4c-1.2,0.3-2.3,0.5-3.5,0.8l0.1,0l-0.4,0.1c0,0,0,0-0.1,0l0,0l0,0l0,0
			c1.3-0.2,2.6-0.4,3.9-0.7c0.7-0.1,1.3-0.3,1.9-0.3c0.3,0,0.6,0,1-0.1c0.4,0,0.7-0.2,1-0.4c0.1-0.1,0.2-0.2,0.3-0.2
			c0,0.2,0,0.4-0.1,0.5c0,0.2,0,0.4-0.1,0.6c0,0.4-0.1,0.7-0.4,0.9c-0.2,0.2-0.7,0.3-1,0.5c-0.7,0.3-1,0.6-1,0.6
			c0,0,0.5-0.2,1.2-0.3c0.3-0.1,0.8-0.1,1.2-0.4c0.4-0.3,0.6-0.8,0.6-1.2c0-0.2,0-0.4,0-0.6c0-0.2,0-0.4,0-0.5
			c0-0.3,0.1-0.6,0.1-0.8c0-0.1,0.1-0.1,0.1-0.2c0.2-0.5,0.3-1,0.4-1.4c0.1-0.2,0.1-0.5,0.3-0.6l0.4-0.6c0.4-0.3,0.7-0.7,1.2-1
			c0.2-0.2,0.5-0.3,0.7-0.5c0.2-0.2,0.4-0.3,0.7-0.5c0.3-0.4,0.7-0.8,1-1.2c0.1-0.1,0.1-0.2,0.2-0.3h4.7c0,0-0.1,0.1-0.1,0.1
			c-0.3,0.2-0.7,0.5-0.9,0.9c-0.2,0.3-0.5,0.7-0.5,1.1c-0.1,0.4-0.2,0.8-0.4,1.3l-0.3,0.6L69.2,97c0,0-0.1,0.1-0.1,0.1l-0.3,0.3
			c-0.3,0.4-0.7,0.6-1.1,0.9c-0.4,0.3-0.8,0.6-1.1,1c-0.3,0.4-0.6,0.7-0.7,1.1c-0.2,0.4-0.3,0.7-0.6,0.9c-0.2,0.2-0.6,0.4-0.8,0.6
			c-0.3,0.2-0.5,0.3-0.7,0.4c-0.4,0.2-0.6,0.4-0.6,0.4c0,0,0.2-0.2,0.6-0.3c0.2-0.1,0.5-0.2,0.8-0.3c0.3-0.1,0.7-0.3,1-0.6
			c0.3-0.2,0.6-0.6,0.7-0.9c0.2-0.4,0.4-0.7,0.7-1c0.2-0.3,0.6-0.6,1-0.8c-0.1,0.1-0.3,0.3-0.3,0.6c-0.2,0.6-0.1,1.3,0.1,1.9
			c0.2,0.7,0.3,1.3,0.2,1.8c0,0.2-0.1,0.4-0.1,0.6c0,0.1-0.1,0.2-0.1,0.2s0.1-0.1,0.2-0.2c0.1-0.1,0.3-0.3,0.4-0.6
			c0.1-0.3,0.2-0.6,0.2-0.9c0-0.3-0.1-0.7-0.1-1c-0.1-0.4-0.2-0.8-0.2-1.1c0.3,0.8,0.9,1.8,1.5,2.7c0.7,1,1.4,1.9,1.7,2.7
			c0.2,0.4,0.3,0.7,0.2,1c-0.1,0.2-0.1,0.4-0.1,0.4s0.1-0.1,0.2-0.4c0.1-0.2,0.1-0.6,0-1c-0.2-0.9-0.9-1.9-1.5-2.9
			c-0.7-1-1.4-1.9-1.8-2.7c-0.2-0.4-0.3-0.7-0.3-0.9c0-0.1,0-0.2,0-0.2c0.4-0.3,0.9-0.6,1.2-0.9l0.3-0.3c0.1-0.1,0.1-0.1,0.1-0.2
			l0.1-0.2l0.3-0.7c0.1-0.4,0.2-0.8,0.3-1.2c0.1-0.4,0.3-0.8,0.4-1.1c0.2-0.3,0.5-0.6,0.8-0.8c0.1-0.1,0.2-0.2,0.3-0.3h2.5
			c-0.1,0.1-0.3,0.3-0.3,0.5c-0.2,0.3-0.3,0.6-0.4,1c0,0.2,0,0.4-0.1,0.6c0,0.2,0,0.4-0.1,0.6c0,0.4-0.1,0.7-0.4,0.9
			c-0.2,0.2-0.7,0.3-1,0.5c-0.7,0.3-1,0.6-1,0.6c0,0,0.5-0.2,1.2-0.3c0.3-0.1,0.8-0.1,1.2-0.4c0.4-0.3,0.6-0.8,0.6-1.2
			c0-0.2,0-0.4,0-0.6c0-0.2,0-0.4,0-0.5c0.1-0.3,0.1-0.7,0.2-0.9c0.1-0.2,0.1-0.4,0.2-0.6h4.7c-0.1,0.1-0.1,0.2-0.2,0.3
			c-0.1,0.3-0.4,0.5-0.5,0.9c-0.1,0.3-0.2,0.7-0.4,1.1c-0.2,0.4-0.2,0.8-0.2,1.3c0,0.4-0.1,0.9,0,1.4c0.1,0.5,0.2,0.9,0.2,1.4
			c0.2,0.9,0.6,1.8,0,2.5c-0.5,0.7-1.4,1.2-2.1,1.6c-0.4,0.2-0.7,0.5-0.9,0.7c-0.2,0.2-0.4,0.4-0.5,0.7c-0.2,0.4,0.1,0.6,0,0.6
			c0.1,0-0.1-0.2,0.1-0.6c0.1-0.2,0.3-0.4,0.5-0.6c0.3-0.2,0.6-0.4,0.9-0.6c0.7-0.4,1.7-0.8,2.4-1.6c0.3-0.4,0.4-0.9,0.4-1.4
			c0-0.5-0.2-0.9-0.3-1.4c-0.1-0.5-0.2-0.9-0.3-1.4c-0.1-0.5,0-0.9-0.1-1.3c0-0.4,0-0.8,0.1-1.2c0.1-0.4,0.2-0.8,0.2-1.1
			c0.1-0.3,0.3-0.6,0.3-0.9c0.1-0.1,0.1-0.2,0.1-0.3h1.9c0,0,0.1,0.1,0.1,0.1l0,0c0,0,0,0.1,0,0.1s0,0,0.1,0.1
			c0,0.1,0.1,0.1,0.1,0.1c0,0,0,0,0-0.1c0-0.1,0-0.1,0-0.1c0,0,0-0.1,0.1-0.1L102.8,92.9L102.8,92.9L102.8,92.9z"/>
		<path fill="#C4932C" d="M74.6,96.7c-0.1-0.3-0.2-0.5-0.2-0.5s-0.1,0.2-0.1,0.6c-0.1,0.3,0,0.8,0,1.2c0,0.4,0.2,0.8,0.2,1.1
			c0,0.3,0.1,0.6,0.1,0.6s0.1-0.2,0.2-0.5c0.2-0.3,0.1-0.8,0.1-1.2C74.8,97.5,74.7,97,74.6,96.7z"/>
		<path fill="#C4932C" d="M61.9,102.4c-0.1-0.3-0.2-0.5-0.2-0.5s-0.1,0.2-0.1,0.5c-0.1,0.3,0,0.8,0,1.2c0,0.4,0.2,0.8,0.2,1.1
			c0,0.3,0.1,0.6,0.1,0.6s0.1-0.2,0.2-0.5c0.2-0.3,0.1-0.8,0.1-1.2C62.2,103.1,62,102.7,61.9,102.4z"/>
		<path fill="#C4932C" d="M79.1,104.5c-0.1-0.3-0.1-0.4-0.1-0.6c0-0.2,0-0.4,0-0.6c0.1-0.7,0.1-1.3,0.1-1.3s-0.1,0.1-0.2,0.3
			c-0.1,0.2-0.2,0.5-0.4,0.9c-0.1,0.2-0.1,0.4-0.1,0.6c0,0.2,0,0.5,0.1,0.7c0.2,0.5,0.2,0.9,0.3,1.4c0.2,1,0.3,2,0.4,2.8
			c0.1,0.8,0.2,1.3,0.2,1.3s0.1-2-0.1-4.1C79.3,105.5,79.3,104.9,79.1,104.5z"/>
		<path fill="#C4932C" d="M82.8,96.3l0.5,1c0.4,0.7,1.1,1.3,1.5,1.9c0.2,0.3,0.4,0.6,0.5,1c0.1,0.4,0.1,0.6,0.1,1
			c0,0.7-0.2,1.5,0.3,2.3c0.2,0.3,0.6,0.7,1,0.9c0.5,0.2,0.9,0.3,1.4,0.4c0.9,0.3,1.7,0.6,2.5,1l2.5,1l0,0l0,0l0,0l0,0l-0.4-0.2
			l0.1,0.1l-2.1-1c-0.8-0.4-1.6-0.8-2.5-1.1c-0.4-0.2-0.9-0.3-1.2-0.4c-0.3-0.2-0.6-0.4-0.8-0.8c-0.3-0.6-0.2-1.3-0.2-2
			c0-0.3,0-0.8-0.2-1.2c-0.1-0.4-0.2-0.7-0.5-1.1c-0.5-0.7-1.1-1.2-1.6-1.9l-0.6-1l-0.4-1c-0.2-0.7-0.5-1.4-0.9-2.1
			c0.3,0.7,0.5,1.4,0.6,2.1L82.8,96.3z"/>
		<path fill="#C4932C" d="M94.2,103.4c-0.2,0-0.5,0-0.7-0.1c-0.2,0-0.5-0.1-0.7-0.2c-0.5-0.1-1-0.4-1.7-0.5l-0.9-0.1
			c-0.3,0-0.6,0-0.9,0c-0.6,0-1.1,0.1-1.6,0.1c-0.9,0.1-1.5,0.2-1.5,0.2s0.6,0.1,1.5,0.1c0.5,0,1,0,1.6,0c0.3,0,0.6,0,0.9,0l0.8,0.2
			c0.6,0,1.1,0.3,1.7,0.4c0.6,0.2,1.1,0.2,1.6,0.1c0.9-0.1,1.5,0,1.5,0s-0.1,0-0.4-0.1C95.1,103.5,94.7,103.4,94.2,103.4z"/>
		<polygon fill="#C4932C" points="60.9,100.4 60.9,100.4 60.9,100.4 		"/>
		<path fill="#C4932C" d="M56.4,98.7l0.9,0c0.3,0,0.6,0.1,0.8,0.1c0.5,0.1,1.1,0.2,1.5,0.3c0.9,0.1,1.5,0.2,1.5,0.2
			s-0.6-0.2-1.4-0.5c-0.4-0.1-0.9-0.3-1.5-0.4c-0.3-0.1-0.6-0.1-0.9-0.2l-1,0c-0.7,0-1.2,0.2-1.8,0.1c-0.5,0.1-1.1,0.1-1.5,0
			c-0.4-0.1-0.9-0.1-1.1-0.1c-0.3,0-0.4,0-0.4,0s0.6,0,1.5,0.3c0.4,0.1,1,0.2,1.6,0.2C55.2,98.8,55.8,98.7,56.4,98.7z"/>
		<path fill="#C4932C" d="M83.1,93.5c0.4,0.2,0.7,0.5,1.1,0.7c0.7,0.5,1.3,1,2.2,1.4l0,0h0c0.4,0.1,0.8,0.2,1.2,0.2l1.2,0.1
			c0.4,0,0.8,0,1.2,0.1c0.2,0,0.4,0,0.6,0.1l0.5,0.2c0.4,0.1,0.6,0.4,0.9,0.6c0.3,0.2,0.6,0.5,0.9,0.7c0.2,0.1,0.3,0.2,0.5,0.3
			c0.2,0.1,0.4,0.1,0.7,0.1c0.4,0,0.8,0,1.2,0l0.8,0.1l0.4,0.1c0,0,0.1,0,0.1,0c0,0,0.1,0,0.1,0c-0.1-0.1-0.1-0.1-0.2-0.1l-0.4-0.1
			l-0.8-0.2l0,0l0,0c-0.4-0.1-0.8-0.1-1.2-0.1c-0.2,0-0.3-0.1-0.5-0.1l-0.4-0.3c-0.3-0.2-0.5-0.4-0.8-0.7c-0.3-0.2-0.6-0.5-1-0.7
			l-0.6-0.2c-0.2-0.1-0.4-0.1-0.6-0.1c-0.1,0-0.2,0-0.3,0c0.1,0,0.2,0,0.3,0c0.3,0,0.7-0.1,1.2-0.1c0.5,0,1,0,1.6,0
			c0.6,0,1.2,0.1,1.9,0.1c1.3,0.1,2.6,0.2,3.6,0.2c1,0,1.6-0.1,1.6-0.1s-0.7,0-1.6-0.2c-1-0.1-2.2-0.3-3.5-0.4
			C94.3,95,93.6,95,93,95c-0.6,0-1.2,0.1-1.7,0.1c-0.5,0-0.9,0.2-1.1,0.3c-0.2,0.1-0.3,0.1-0.4,0.1c-0.3,0-0.6-0.1-0.9-0.1l-1.2-0.1
			c-0.4,0-0.8-0.1-1.1-0.2c-0.7-0.3-1.5-0.8-2.2-1.2c-0.4-0.2-0.8-0.4-1.2-0.6c-0.2-0.1-0.4-0.2-0.7-0.2c-0.2-0.1-0.5-0.1-0.7-0.1
			c0.2,0.1,0.5,0,0.7,0.2C82.7,93.3,82.9,93.3,83.1,93.5z"/>
	</g>
</g>
</svg>
